<svg width="28" height="28" viewBox="0 0 28 28" fill="none" xmlns="http://www.w3.org/2000/svg">
<path d="M7 5.59922C7 4.82605 7.62683 4.19922 8.4 4.19922H26.6C27.3732 4.19922 28 4.82605 28 5.59922C28 6.37239 27.3732 6.99922 26.6 6.99922H8.4C7.62683 6.99922 7 6.37234 7 5.59922ZM26.6 12.5992H1.4C0.626828 12.5992 0 13.2261 0 13.9992C0 14.7724 0.626828 15.3992 1.4 15.3992H26.6C27.3732 15.3992 28 14.7724 28 13.9992C28 13.2261 27.3732 12.5992 26.6 12.5992ZM26.6 20.9992H14C13.2269 20.9992 12.6 21.626 12.6 22.3992C12.6 23.1723 13.2269 23.7992 14 23.7992H26.6C27.3732 23.7992 28 23.1723 28 22.3992C28 21.626 27.3732 20.9992 26.6 20.9992Z" fill="#585858"/>
</svg>
