<svg width="20" height="19" viewBox="0 0 20 19" fill="none" xmlns="http://www.w3.org/2000/svg">
<g clip-path="url(#clip0_1513_4503)">
<path d="M11.8323 9.51699L19.6199 2.11853C20.1267 1.63729 20.1267 0.859197 19.6199 0.377958C19.1134 -0.103281 18.2943 -0.103281 17.7877 0.377958L9.9999 7.77641L2.21229 0.377958C1.70548 -0.103281 0.88667 -0.103281 0.380103 0.377958C-0.126701 0.859197 -0.126701 1.63729 0.380103 2.11853L8.16771 9.51699L0.380103 16.9154C-0.126701 17.3967 -0.126701 18.1748 0.380103 18.656C0.632556 18.8961 0.964494 19.0167 1.29619 19.0167C1.6279 19.0167 1.9596 18.8961 2.21229 18.656L9.9999 11.2576L17.7877 18.656C18.0404 18.8961 18.3721 19.0167 18.7038 19.0167C19.0355 19.0167 19.3672 18.8961 19.6199 18.656C20.1267 18.1748 20.1267 17.3967 19.6199 16.9154L11.8323 9.51699Z" fill="#7C7C7C"/>
</g>
<defs>
<clipPath id="clip0_1513_4503">
<rect width="20" height="19" fill="white"/>
</clipPath>
</defs>
</svg>
